<svg width="84" height="84" viewBox="0 0 84 84" fill="none" xmlns="http://www.w3.org/2000/svg">
<rect width="84" height="84" rx="23" fill="white"/>
<path d="M64.4343 60.2949C63.8353 59.6921 63.5359 59.3907 63.4243 59.0614C63.3744 58.9141 63.3557 58.8172 63.3472 58.6619C63.3282 58.3148 63.5268 57.8462 63.924 56.909C64.5986 55.3174 64.9671 53.5583 64.9671 51.7254C64.9671 44.3688 59.0819 38.4836 51.7254 38.4836C44.3688 38.4836 38.4836 44.3688 38.4836 51.7254C38.4836 59.0819 44.3688 64.9671 51.7254 64.9671C53.5437 64.9671 55.2879 64.596 56.8734 63.9275C57.7931 63.5398 58.253 63.3459 58.598 63.3646C58.7516 63.3728 58.8496 63.3916 58.9954 63.4406C59.323 63.5508 59.6219 63.845 60.2198 64.4333L66.0325 70.1528C66.7981 70.9061 67.1809 71.2828 67.6391 71.3641C67.8165 71.3956 67.9981 71.3949 68.1753 71.362C68.6328 71.2769 69.0126 70.8972 69.772 70.1377L70.1287 69.7811C70.8915 69.0183 71.2729 68.6369 71.3574 68.1777C71.3901 67.9999 71.3904 67.8177 71.3582 67.6398C71.2753 67.1803 70.8951 66.7977 70.1348 66.0324L64.4343 60.2949ZM51.7254 59.0819C49.7743 59.0819 47.9031 58.3068 46.5235 56.9272C45.1439 55.5476 44.3688 53.6764 44.3688 51.7254C44.3688 49.7743 45.1439 47.9031 46.5235 46.5235C47.9031 45.1439 49.7743 44.3688 51.7254 44.3688C53.6764 44.3688 55.5476 45.1439 56.9272 46.5235C58.3068 47.9031 59.0819 49.7743 59.0819 51.7254C59.0819 53.6764 58.3068 55.5476 56.9272 56.9272C55.5476 58.3068 53.6764 59.0819 51.7254 59.0819ZM23.4829 62.0245C22.4009 62.0245 21.8599 62.0245 21.475 61.7585C21.326 61.6555 21.1969 61.5264 21.0939 61.3774C20.8279 60.9924 20.8279 60.4515 20.8279 59.3695V40.9317C20.8279 40.0462 20.8279 39.6034 20.6468 39.2691C20.5082 39.0133 20.2982 38.8032 20.0423 38.6646C19.708 38.4836 19.2653 38.4836 18.3797 38.4836C16.3324 38.4836 15.3087 38.4836 14.8742 38.0695C14.548 37.7587 14.3788 37.3178 14.4133 36.8686C14.4593 36.2702 15.2202 35.5854 16.742 34.2158L39.6501 13.5985C40.3806 12.941 40.7459 12.6122 41.1746 12.5393C41.3411 12.511 41.5113 12.511 41.6778 12.5393C42.1065 12.6122 42.4717 12.941 43.2023 13.5985L67.4314 35.4047C67.8548 35.7857 68.0665 35.9762 68.1605 36.1068C68.7921 36.9835 68.3175 38.2203 67.2615 38.4495C67.1043 38.4836 66.8195 38.4836 66.2499 38.4836C66.1315 38.4836 66.0722 38.4836 66.0213 38.4801C65.6874 38.4573 65.4142 38.3471 65.1581 38.1318C65.119 38.0989 65.0676 38.0494 64.965 37.9504C61.5343 34.643 56.8688 32.5983 51.7254 32.5983C41.1908 32.5983 32.5983 41.1908 32.5983 51.7254C32.5983 53.7798 32.9259 55.7652 33.5296 57.6211C34.1761 59.6085 34.4994 60.6022 34.2716 61.1243C34.1724 61.3518 34.078 61.4817 33.8924 61.6464C33.4664 62.0245 32.5565 62.0245 30.7369 62.0245H23.4829Z" fill="#100BFF"/>
</svg>
