<svg width="211" height="46" viewBox="0 0 211 46" fill="none" xmlns="http://www.w3.org/2000/svg">
<rect width="211" height="46" rx="8" fill="white"/>
<path d="M38.9659 32.9011C38.4113 32.3429 38.1341 32.0638 38.0208 31.7877C37.9617 31.6438 37.9504 31.6031 37.9264 31.4494C37.8804 31.1544 38.0187 30.5853 38.2951 29.4469C38.4186 28.9384 38.4836 28.407 38.4836 27.8627C38.4836 24.1844 35.541 21.2418 31.8627 21.2418C28.1844 21.2418 25.2418 24.1844 25.2418 27.8627C25.2418 31.541 28.1844 34.4836 31.8627 34.4836C32.4064 34.4836 32.9368 34.4172 33.4449 34.2924C34.5584 34.0188 35.1152 33.8821 35.4097 33.9269C35.5617 33.95 35.6051 33.962 35.7476 34.0198C36.0236 34.1317 36.3009 34.4046 36.8554 34.9502L38.9266 36.9882C39.4958 37.5483 40.4103 37.5446 40.975 36.9799C41.5416 36.4133 41.5431 35.495 40.9783 34.9265L38.9659 32.9011ZM31.8627 31.541C30.8871 31.541 29.9516 31.1534 29.2617 30.4636C28.5719 29.7738 28.1844 28.8382 28.1844 27.8627C28.1844 26.8871 28.5719 25.9516 29.2617 25.2617C29.9516 24.5719 30.8871 24.1844 31.8627 24.1844C32.8382 24.1844 33.7738 24.5719 34.4636 25.2617C35.1534 25.9516 35.541 26.8871 35.541 27.8627C35.541 28.8382 35.1534 29.7738 34.4636 30.4636C33.7738 31.1534 32.8382 31.541 31.8627 31.541ZM19.0173 33.0123C17.9845 33.0123 17.4682 33.0123 17.0947 32.7688C16.9201 32.655 16.7712 32.506 16.6574 32.3315C16.4139 31.958 16.4139 31.4416 16.4139 30.4088V22.4658C16.4139 21.7898 15.8659 21.2418 15.1899 21.2418C14.068 21.2418 13.5372 19.8583 14.371 19.1079L24.937 9.59849C25.6676 8.94099 26.0328 8.61224 26.4615 8.5393C26.628 8.51096 26.7982 8.51096 26.9647 8.5393C27.3934 8.61224 27.7586 8.94099 28.4892 9.59849L39.7157 19.7023C40.3173 20.2437 39.9343 21.2418 39.125 21.2418C38.8844 21.2418 38.6557 21.1422 38.4825 20.9752C36.7671 19.3215 34.4344 18.2992 31.8627 18.2992C26.5954 18.2992 22.2992 22.5954 22.2992 27.8627C22.2992 28.0794 22.3065 28.2945 22.3208 28.5079C22.4717 30.7537 22.5471 31.8766 22.3094 32.2775C22.1636 32.5232 22.1047 32.5863 21.8692 32.7482C21.4853 33.0123 20.6626 33.0123 19.0173 33.0123Z" fill="#100BFF"/>
<path d="M47.5126 19.8676H52.5843V14.5525H56.0968V28.3242H52.5843V22.6804H47.5126V28.3242H44V14.5525H47.5126V19.8676Z" fill="#010038"/>
<path d="M63.171 18.6438C64.6524 18.656 65.9428 19.1005 67.0419 19.9772C68.1531 20.8417 68.7086 22.0715 68.7086 23.6667C68.7086 25.2496 68.1531 26.4734 67.0419 27.3379C65.9428 28.2024 64.6524 28.6347 63.171 28.6347C61.7014 28.6347 60.4111 28.2085 59.3 27.3562C58.1889 26.4916 57.6333 25.2618 57.6333 23.6667C57.6333 22.0715 58.1829 20.8417 59.282 19.9772C60.3932 19.1005 61.6895 18.6621 63.171 18.6621V18.6438ZM63.171 21.5297C62.5138 21.5419 62.0001 21.761 61.6297 22.1872C61.2594 22.6012 61.0742 23.0944 61.0742 23.6667C61.0742 24.2633 61.2594 24.7626 61.6297 25.1644C62.0001 25.5662 62.5138 25.7671 63.171 25.7671C63.84 25.7671 64.3538 25.5662 64.7122 25.1644C65.0826 24.7626 65.2677 24.2633 65.2677 23.6667C65.2677 23.0944 65.0826 22.6012 64.7122 22.1872C64.3538 21.761 63.84 21.5479 63.171 21.5479V21.5297Z" fill="#010038"/>
<path d="M73.4418 18.9543V20.1233H73.4776C73.8599 19.6119 74.29 19.2405 74.7679 19.0091C75.2578 18.7778 75.7954 18.6621 76.3809 18.6621C77.0499 18.6621 77.6533 18.8082 78.1909 19.1005C78.7405 19.3805 79.1825 19.8311 79.5171 20.4521C79.8277 19.8676 80.2698 19.4231 80.8432 19.1187C81.4167 18.8143 82.0141 18.6621 82.6354 18.6621C83.8062 18.6621 84.6187 19.0091 85.0727 19.7032C85.5386 20.3973 85.7716 21.2861 85.7716 22.3699V28.3242H82.5099V23.8493C82.5099 23.8493 82.5099 23.8432 82.5099 23.8311C82.5099 23.8189 82.5099 23.8067 82.5099 23.7945C82.5099 23.6728 82.5099 23.5388 82.5099 23.3927C82.5099 23.2466 82.5039 23.1005 82.492 22.9543C82.4562 22.5403 82.3486 22.1629 82.1694 21.8219C82.0022 21.481 81.6676 21.3105 81.1658 21.3105C80.5565 21.3105 80.1503 21.5114 79.9472 21.9132C79.756 22.3151 79.6485 22.7534 79.6246 23.2283C79.6127 23.3379 79.6067 23.4475 79.6067 23.5571C79.6067 23.6667 79.6067 23.7702 79.6067 23.8676V28.3242H76.345V23.8493C76.345 23.7275 76.345 23.5936 76.345 23.4475C76.345 23.3014 76.339 23.1492 76.3271 22.9909C76.2913 22.5525 76.1778 22.1507 75.9866 21.7854C75.7954 21.4201 75.431 21.2374 74.8934 21.2374C74.3558 21.2374 73.9914 21.4201 73.8002 21.7854C73.609 22.1507 73.4955 22.5525 73.4597 22.9909C73.4478 23.1492 73.4418 23.3014 73.4418 23.4475C73.4418 23.5936 73.4418 23.7336 73.4418 23.8676V28.3242H70.1801V18.9543H73.4418Z" fill="#010038"/>
<path d="M97.3533 23.8493V24.1963H90.4895C90.4895 24.8782 90.6627 25.4018 91.0092 25.7671C91.3557 26.1202 91.8634 26.2968 92.5325 26.2968C92.879 26.2968 93.1777 26.2298 93.4286 26.0959C93.6914 25.9619 93.9124 25.7428 94.0917 25.4384L97.2279 25.4201C96.965 26.5403 96.3796 27.3562 95.4716 27.8676C94.5755 28.379 93.6018 28.6347 92.5504 28.6347C91.0331 28.6347 89.7667 28.2146 88.7511 27.3744C87.7356 26.5221 87.2278 25.2861 87.2278 23.6667C87.2278 22.1081 87.6997 20.8843 88.6436 19.9954C89.5994 19.1065 90.824 18.6621 92.3175 18.6621C93.9184 18.6621 95.155 19.1309 96.0271 20.0685C96.9113 21.0061 97.3533 22.2725 97.3533 23.8676V23.8493ZM90.5433 22.2785H94.3246C94.241 21.8402 94.02 21.4871 93.6615 21.2192C93.3151 20.9513 92.9208 20.8174 92.4787 20.8174C92.0008 20.8174 91.5827 20.9452 91.2243 21.2009C90.8658 21.4444 90.6388 21.8097 90.5433 22.2968V22.2785Z" fill="#010038"/>
<path d="M102.431 14.5525V28.3242H98.9188V14.5525H102.431Z" fill="#010038"/>
<path d="M107.919 18.9543V20.1598H107.955C108.337 19.5997 108.761 19.21 109.227 18.9909C109.705 18.7717 110.261 18.6621 110.894 18.6621C112.137 18.6621 113.021 19.0213 113.546 19.7397C114.084 20.4581 114.353 21.3957 114.353 22.5525V28.3242H111.091V23.758C111.091 23.7336 111.091 23.7032 111.091 23.6667C111.091 23.6301 111.091 23.5936 111.091 23.5571C111.091 23.4475 111.091 23.3318 111.091 23.21C111.091 23.0883 111.085 22.9665 111.073 22.8447C111.049 22.4673 110.942 22.1202 110.751 21.8037C110.56 21.4749 110.183 21.3105 109.622 21.3105C108.965 21.3105 108.517 21.5297 108.278 21.968C108.039 22.3942 107.919 22.8995 107.919 23.484V28.3242H104.657V18.9543H107.919Z" fill="#010038"/>
<path d="M123.674 19.2466L122.581 21.3653C122.438 21.2922 122.276 21.2253 122.097 21.1644C121.93 21.1035 121.757 21.0548 121.577 21.0183C121.446 20.9939 121.315 20.9756 121.183 20.9635C121.064 20.9391 120.944 20.9269 120.825 20.9269C120.765 20.9269 120.699 20.933 120.628 20.9452C120.568 20.9452 120.508 20.9574 120.448 20.9817C120.281 21.0183 120.132 21.0852 120 21.1826C119.869 21.2679 119.803 21.3957 119.803 21.5662C119.803 21.7732 119.887 21.9315 120.054 22.0411C120.233 22.1385 120.431 22.2116 120.646 22.2603C120.765 22.2968 120.879 22.3272 120.986 22.3516C121.094 22.3638 121.189 22.376 121.273 22.3881C122.037 22.5464 122.671 22.8326 123.172 23.2466C123.686 23.6606 123.943 24.2998 123.943 25.1644C123.943 26.3577 123.513 27.2283 122.653 27.7763C121.793 28.312 120.843 28.5982 119.803 28.6347C119.767 28.6347 119.732 28.6347 119.696 28.6347C119.672 28.6347 119.642 28.6347 119.606 28.6347C118.949 28.6347 118.304 28.5434 117.671 28.3607C117.049 28.1781 116.458 27.9163 115.896 27.5753L117.079 25.2374C117.282 25.3957 117.515 25.5419 117.778 25.6758C118.041 25.7976 118.31 25.9072 118.585 26.0046C118.776 26.0654 118.961 26.1142 119.14 26.1507C119.319 26.1872 119.493 26.2055 119.66 26.2055C119.708 26.2055 119.756 26.2055 119.803 26.2055C119.863 26.1933 119.923 26.1811 119.983 26.1689C120.162 26.1324 120.323 26.0594 120.466 25.9498C120.61 25.8402 120.681 25.688 120.681 25.4932C120.681 25.2253 120.556 25.0365 120.305 24.9269C120.054 24.8052 119.756 24.7078 119.409 24.6347C119.278 24.6103 119.146 24.586 119.015 24.5616C118.895 24.5251 118.77 24.4886 118.638 24.4521C118.125 24.3181 117.653 24.0868 117.223 23.758C116.804 23.417 116.595 22.8265 116.595 21.9863C116.595 20.8539 117.008 20.0198 117.832 19.484C118.656 18.9482 119.558 18.6743 120.538 18.6621C120.562 18.6621 120.58 18.6621 120.592 18.6621C120.616 18.6621 120.634 18.6621 120.646 18.6621C121.171 18.6621 121.685 18.7108 122.187 18.8082C122.701 18.8935 123.196 19.0457 123.674 19.2648V19.2466Z" fill="#010038"/>
<path d="M128.956 18.9543V28.3242H125.694V18.9543H128.956ZM127.325 13.4932C127.827 13.5053 128.257 13.6941 128.615 14.0594C128.974 14.4247 129.153 14.863 129.153 15.3744C129.153 15.8858 128.974 16.3242 128.615 16.6895C128.257 17.0548 127.827 17.2374 127.325 17.2374C126.823 17.2374 126.393 17.0548 126.034 16.6895C125.676 16.3242 125.497 15.8858 125.497 15.3744C125.497 14.863 125.676 14.4247 126.034 14.0594C126.393 13.6941 126.823 13.5114 127.325 13.5114V13.4932Z" fill="#010038"/>
<path d="M141.191 18.9543V27.411C141.191 29.4079 140.725 30.8387 139.794 31.7032C138.874 32.5677 137.565 33 135.869 33C135.642 33 135.403 32.9878 135.152 32.9635C134.901 32.9391 134.65 32.8965 134.399 32.8356C133.515 32.6408 132.691 32.2633 131.926 31.7032C131.173 31.1431 130.743 30.382 130.636 29.4201H134.292C134.34 29.5906 134.417 29.7306 134.525 29.8402C134.632 29.9619 134.758 30.0594 134.901 30.1324C134.985 30.1811 135.074 30.2177 135.17 30.242C135.265 30.2785 135.361 30.3029 135.457 30.3151C135.516 30.3272 135.576 30.3333 135.636 30.3333C135.708 30.3455 135.773 30.3516 135.833 30.3516C136.717 30.3516 137.285 30.0898 137.536 29.5662C137.798 29.0548 137.93 28.4277 137.93 27.6849V27.2283C137.512 27.6667 137.07 27.9893 136.604 28.1963C136.15 28.4033 135.618 28.5068 135.009 28.5068C133.671 28.5068 132.577 28.0502 131.729 27.137C130.893 26.2237 130.475 25.0913 130.475 23.7397C130.475 22.3638 130.905 21.1766 131.765 20.1781C132.637 19.1674 133.778 18.6621 135.188 18.6621C135.725 18.6621 136.227 18.7656 136.693 18.9726C137.171 19.1674 137.571 19.4962 137.894 19.9589L137.93 19.9406V18.9543H141.191ZM135.941 21.4566C135.283 21.4688 134.77 21.688 134.399 22.1142C134.029 22.5282 133.844 23.0213 133.844 23.5936C133.844 24.1903 134.029 24.6895 134.399 25.0913C134.77 25.4932 135.283 25.6941 135.941 25.6941C136.61 25.6941 137.123 25.4932 137.482 25.0913C137.852 24.6895 138.037 24.1903 138.037 23.5936C138.037 23.0213 137.852 22.5282 137.482 22.1142C137.123 21.688 136.61 21.4749 135.941 21.4749V21.4566Z" fill="#010038"/>
<path d="M143.23 13.1644H146.492V20.1416H146.528C146.91 19.6423 147.334 19.2709 147.8 19.0274C148.278 18.7839 148.833 18.6621 149.467 18.6621C150.638 18.6621 151.504 19.0213 152.065 19.7397C152.639 20.4581 152.926 21.414 152.926 22.6073V28.3242H149.664V23.5205C149.664 23.5205 149.664 23.5145 149.664 23.5023C149.664 23.4779 149.664 23.4536 149.664 23.4292C149.664 22.9056 149.574 22.4247 149.395 21.9863C149.228 21.5358 148.828 21.3105 148.194 21.3105C147.573 21.3105 147.137 21.5358 146.886 21.9863C146.635 22.4247 146.504 22.9056 146.492 23.4292C146.492 23.4536 146.492 23.4779 146.492 23.5023C146.492 23.5145 146.492 23.5266 146.492 23.5388V28.3242H143.23V13.1644Z" fill="#010038"/>
<path d="M158.645 21.6941V28.3242H155.383V21.6941H154.326V18.9543H155.383V16.1416H158.645V18.9543H160.491V21.6941H158.645Z" fill="#010038"/>
<path d="M168.705 19.2466L167.612 21.3653C167.468 21.2922 167.307 21.2253 167.128 21.1644C166.961 21.1035 166.787 21.0548 166.608 21.0183C166.477 20.9939 166.345 20.9756 166.214 20.9635C166.094 20.9391 165.975 20.9269 165.855 20.9269C165.796 20.9269 165.73 20.933 165.658 20.9452C165.599 20.9452 165.539 20.9574 165.479 20.9817C165.312 21.0183 165.162 21.0852 165.031 21.1826C164.9 21.2679 164.834 21.3957 164.834 21.5662C164.834 21.7732 164.918 21.9315 165.085 22.0411C165.264 22.1385 165.461 22.2116 165.676 22.2603C165.796 22.2968 165.909 22.3272 166.017 22.3516C166.124 22.3638 166.22 22.376 166.303 22.3881C167.068 22.5464 167.701 22.8326 168.203 23.2466C168.717 23.6606 168.974 24.2998 168.974 25.1644C168.974 26.3577 168.544 27.2283 167.683 27.7763C166.823 28.312 165.873 28.5982 164.834 28.6347C164.798 28.6347 164.762 28.6347 164.726 28.6347C164.702 28.6347 164.673 28.6347 164.637 28.6347C163.98 28.6347 163.334 28.5434 162.701 28.3607C162.08 28.1781 161.489 27.9163 160.927 27.5753L162.11 25.2374C162.313 25.3957 162.546 25.5419 162.809 25.6758C163.072 25.7976 163.34 25.9072 163.615 26.0046C163.806 26.0654 163.992 26.1142 164.171 26.1507C164.35 26.1872 164.523 26.2055 164.691 26.2055C164.738 26.2055 164.786 26.2055 164.834 26.2055C164.894 26.1933 164.953 26.1811 165.013 26.1689C165.192 26.1324 165.354 26.0594 165.497 25.9498C165.64 25.8402 165.712 25.688 165.712 25.4932C165.712 25.2253 165.587 25.0365 165.336 24.9269C165.085 24.8052 164.786 24.7078 164.44 24.6347C164.308 24.6103 164.177 24.586 164.045 24.5616C163.926 24.5251 163.8 24.4886 163.669 24.4521C163.155 24.3181 162.683 24.0868 162.253 23.758C161.835 23.417 161.626 22.8265 161.626 21.9863C161.626 20.8539 162.038 20.0198 162.863 19.484C163.687 18.9482 164.589 18.6743 165.569 18.6621C165.593 18.6621 165.61 18.6621 165.622 18.6621C165.646 18.6621 165.664 18.6621 165.676 18.6621C166.202 18.6621 166.716 18.7108 167.217 18.8082C167.731 18.8935 168.227 19.0457 168.705 19.2648V19.2466Z" fill="#010038"/>
<path d="M172.732 24.4155C173.317 24.4277 173.813 24.6408 174.219 25.0548C174.625 25.4688 174.828 25.9741 174.828 26.5708C174.828 27.1553 174.625 27.6545 174.219 28.0685C173.813 28.4825 173.317 28.6895 172.732 28.6895C172.146 28.6895 171.65 28.4825 171.244 28.0685C170.838 27.6545 170.635 27.1553 170.635 26.5708C170.635 25.9741 170.838 25.4688 171.244 25.0548C171.65 24.6408 172.146 24.4338 172.732 24.4338V24.4155Z" fill="#010038"/>
<path d="M180.452 21.6941V28.3242H177.19V21.6941H176.043V18.9543H177.19V17.7671C177.19 17.2679 177.214 16.8052 177.262 16.379C177.309 15.9528 177.447 15.5388 177.674 15.137C177.734 15.0274 177.799 14.9239 177.871 14.8265C177.943 14.7169 178.026 14.6073 178.122 14.4977C178.528 14.0107 179.006 13.6393 179.556 13.3836C180.117 13.1279 180.709 13 181.33 13C181.581 13 181.82 13.0244 182.047 13.0731C182.274 13.1218 182.501 13.207 182.728 13.3288V16.1781C182.68 16.1659 182.626 16.1476 182.566 16.1233C182.519 16.0989 182.465 16.0807 182.405 16.0685C182.274 16.0076 182.142 15.965 182.011 15.9406C181.879 15.9041 181.736 15.8858 181.581 15.8858C181.163 15.8858 180.87 16.0137 180.703 16.2694C180.535 16.5251 180.452 16.9209 180.452 17.4566V18.9543H182.728V21.6941H180.452Z" fill="#010038"/>
<path d="M186.916 27.0457L182.471 18.9543H186.235L188.69 23.758L191.091 18.9543H194.801L187.435 33H183.78L186.916 27.0457Z" fill="#010038"/>
<path d="M198.803 18.9543V28.3242H195.541V18.9543H198.803ZM197.172 13.4932C197.674 13.5053 198.104 13.6941 198.462 14.0594C198.821 14.4247 199 14.863 199 15.3744C199 15.8858 198.821 16.3242 198.462 16.6895C198.104 17.0548 197.674 17.2374 197.172 17.2374C196.67 17.2374 196.24 17.0548 195.882 16.6895C195.523 16.3242 195.344 15.8858 195.344 15.3744C195.344 14.863 195.523 14.4247 195.882 14.0594C196.24 13.6941 196.67 13.5114 197.172 13.5114V13.4932Z" fill="#010038"/>
</svg>
